<?xml version="1.0" standalone="no"?><!DOCTYPE svg PUBLIC "-//W3C//DTD SVG 1.1//EN" "http://www.w3.org/Graphics/SVG/1.1/DTD/svg11.dtd"><svg t="1504366012205" class="icon" style="" viewBox="0 0 1024 1024" version="1.1" xmlns="http://www.w3.org/2000/svg" p-id="2391" xmlns:xlink="http://www.w3.org/1999/xlink" width="200" height="200"><defs><style type="text/css"></style></defs><path d="M301.039287 301.039287 47.886637 301.039287 47.886637 47.886637l253.152651 0L301.039287 301.039287zM638.575814 47.886637 385.423163 47.886637 385.423163 301.039287l253.152651 0L638.575814 47.886637zM976.113363 47.886637 722.960713 47.886637 722.960713 301.039287l253.152651 0L976.113363 47.886637zM301.039287 385.423163 47.886637 385.423163l0 253.152651 253.152651 0L301.039287 385.423163zM638.575814 385.423163 385.423163 385.423163l0 253.152651 253.152651 0L638.575814 385.423163zM976.113363 385.423163 722.960713 385.423163l0 253.152651 253.152651 0L976.113363 385.423163zM301.039287 722.960713 47.886637 722.960713l0 253.152651 253.152651 0L301.039287 722.960713zM638.575814 722.960713 385.423163 722.960713l0 253.152651 253.152651 0L638.575814 722.960713zM976.113363 722.960713 722.960713 722.960713l0 253.152651 253.152651 0L976.113363 722.960713z" p-id="2392" fill="#ffffff"></path></svg>